<svg xmlns="http://www.w3.org/2000/svg" xmlns:xlink="http://www.w3.org/1999/xlink" version="1.1" font-family="sans-serif, droid-sans, helvetica, verdana, tahoma" viewbox="0 0 600 241" width="600" height="241" preserveAspectRatio="xMinYMin meet"><rect x="0" y="0" width="600" height="241" fill="#FEFEFE" stroke="#757575" stroke-width="2"/><g stroke="#757575" stroke-width="1"><line x1="270.5" y1="64" x2="270.5" y2="203"/><line x1="270" y1="202.5" x2="586" y2="202.5"/></g><a xlink:href="http://www.openbenchmarking.org/" xlink:show="new"><text x="585" y="59" font-size="7" fill="#065695" text-anchor="end" xlink:show="new">OpenBenchmarking.org</text></a><polygon points="279.5,56 270.5,60.5 270.5,51.5" fill="#065695" stroke="#949494" stroke-width="1"/><text x="282" y="59" font-size="7" fill="#065695" text-anchor="start">Frames Per Second, More Is Better</text><rect x="0" y="0" width="600" height="48" fill="#231f20"/><text x="6" y="19" font-size="17" fill="#FEFEFE" text-anchor="start" xlink:show="new">BioShock Infinite</text><text x="6" y="36" font-size="11" fill="#FEFEFE" text-anchor="start">Resolution: 3840 x 2160 - Quality: Ultra</text><path d="m74 22v9m-5-16v16m-5-28v28m-23-2h12.5c2.485281 0 4.5-2.014719 4.5-4.5s-2.014719-4.5-4.5-4.5h-8c-2.485281 0-4.5-2.014719-4.5-4.5s2.014719-4.5 4.5-4.5h12.5m-21 5h-11m11 13h-2c-4.970563 0-9-4.029437-9-9v-20m-24 40v-20c0-4.970563 4.0294373-9 9-9 4.970563 0 9 4.029437 9 9s-4.029437 9-9 9h-9" stroke="#ffffff" stroke-width="4" fill="none" transform="translate(508,4)"/><line x1="270.5" y1="110" x2="270.5" y2="191" stroke="#757575" stroke-width="11" stroke-dasharray="1,45"/><g font-size="10" fill="#231f20"><text x="265" y="85" text-anchor="end">Windows 10</text><text x="265" y="131" text-anchor="end">Ubuntu 16.04 - AMDGPU-PRO Beta 2</text><text x="265" y="177" text-anchor="end">Ubuntu 16.04 - Linux 4.7 + Mesa 12.1-dev</text></g><g font-size="10" fill="#065695" text-anchor="middle"><text x="325.5" y="217">20</text><text x="378.5" y="217">40</text><text x="431.5" y="217">60</text><text x="484.5" y="217">80</text><text x="537.5" y="217">100</text></g><g stroke="#BABABA" stroke-width="1"><line x1="325.5" y1="64" x2="325.5" y2="197" stroke-dasharray="5,5"/><line x1="325.5" y1="198" x2="325.5" y2="207"/><line x1="378.5" y1="64" x2="378.5" y2="197" stroke-dasharray="5,5"/><line x1="378.5" y1="198" x2="378.5" y2="207"/><line x1="431.5" y1="64" x2="431.5" y2="197" stroke-dasharray="5,5"/><line x1="431.5" y1="198" x2="431.5" y2="207"/><line x1="484.5" y1="64" x2="484.5" y2="197" stroke-dasharray="5,5"/><line x1="484.5" y1="198" x2="484.5" y2="207"/><line x1="537.5" y1="64" x2="537.5" y2="197" stroke-dasharray="5,5"/><line x1="537.5" y1="198" x2="537.5" y2="207"/></g><g stroke="#949494" stroke-width="1"><rect x="270.5" y="70.5" height="34" width="163" fill="#2196f3" xlink:title="Windows 10: 62.04"/><rect x="270.5" y="116.5" height="34" width="244" fill="#2196f3" xlink:title="Ubuntu 16.04 - AMDGPU-PRO Beta 2: 92.91"/><rect x="270.5" y="162.5" height="34" width="142" fill="#2196f3" xlink:title="Ubuntu 16.04 - Linux 4.7 + Mesa 12.1-dev: 54.01"/></g><g font-size="8" fill="#065695" text-anchor="end"/><g font-size="10" fill="#FFFFFF"><text x="428" y="93" text-anchor="end">62.04</text><text x="509" y="139" text-anchor="end">92.91</text><text x="407" y="185" text-anchor="end">54.01</text></g><text x="274" y="79" font-size="7" fill="#FFFFFF" text-anchor="start">MIN: 13.51 / MAX: 116.22</text><text x="274" y="171" font-size="7" fill="#FFFFFF" text-anchor="start">MIN: 13.09 / MAX: 82.05</text><rect x="0" y="224" width="600" height="17" fill="#231f20"/><a xlink:href="http://www.phoronix-test-suite.com/" xlink:show="new"><text x="585" y="236" font-size="9" fill="#FEFEFE" text-anchor="end" xlink:show="new">Phoronix Test Suite 6.2.2</text></a><a xlink:href="/prospect/1606171-HA-REDWINDOW26/b4104824f2fb6500bb26661dc43a8473a86cb988" xlink:show="new"><g transform="translate(4,225)" width="10" height="16"><path d="M5 0v6.5L0 11l3-3-3-3.5L5 0" fill="#038bb8"/><path d="M5 0v6.5l5 4.5-3-3 3-3.5L5 0" fill="#25b3e8"/><path d="M5 16V9l5-4.5V11l-5 5" fill="#e4f4fd"/><path d="M5 16V9L0 4.5V11l5 5" fill="#65cbf4"/></g></a></svg>
